Man.On.A.Ledge.2012.PL.BRRip.XviD-RLF
~~~~~~~~~~~~~~~~~~~~~~~~~~~~~~~~~~~~~

                                            
GENERAL

Complete name: rlf-ledge-pl.avi
Format: AVI
Format/Info: Audio Video Interleave
File size: 716 MiB
Duration: 1h 42 mn
Overall bit rate: 979 Kbps
Language: Polish
Subs: English 
Encoder: Ralf

Video:

Format: MPEG-4 Visual
Format profile: Advanced Simple@L5
Format settings, BVOP: 2
Format settings, QPel: No
Format settings, GMC: No warppoints
Format settings, Matrix: H.263
Muxing mode: Packed bitstream
Codec ID: XVID
Duration: 1h 42 mn
Bit rate: 858 Kbps
Width: 688 pixels
Height: 288 pixels
Display aspect ratio: 2.35:1
Frame rate: 23.976 fps
Color space: YUV
Chroma subsampling: 4:2:0
Bit depth: 8 bits
Scan type: Progressive
Bits/(Pixel*Frame): 0.181
Stream size: 628 MiB (88%)
Writing library: XviD 64

Audio:

Format: MPEG Audio
Format profile: Layer 3
Codec ID/Hint: MP3
Duration: 1h 42mn
Bit rate mode: Constant
Bit rate: 112 Kbps
Channel(s): 2 channels
Sampling rate: 48.0 KHz
Stream size: 81.9 MiB (11%)
Alignment: Split accross interleaves
Interleave, duration: 42 ms (0.58 video frame)


MOVIE INFO

Jest wczesny poranek w samym sercu Nowego Jorku. W polozonym na 21 
pietrze oknie luksusowego hotelu pojawia sie mezczyzna. Wszystko 
wskazuje na to, ze zamierza popelnic samobojstwo. Gdy na miejscu 
zjawia sie policja, mezczyzna oswiadcza, ze bedzie rozmawial tylko 
z wybrana negocjatorka. Tymczasem w polozonym po sasiedzku budynku 
Nowojorskiej Gieldy Diamentow niezauwazona przez nikogo dwojka 
wlamywaczy zmierza po bezcenny diament.
                                           
http://www.imdb.com/title/tt1568338/ 
http://www.filmweb.pl/film/Cz-owiek+na+kraw┼òdzi-2012-280353
                                               
SOURCE

REFiNED's 1080p.BluRay.x264 / libero32's AC3 5.1 (THX)

SCREENS
 
http://image.bayimg.com/maogaaado.jpg
 
http://image.bayimg.com/maogdaado.jpg
 
http://image.bayimg.com/maogeaado.jpg
 
http://image.bayimg.com/maoggaado.jpg
